PathFileType	4	(X/Y/Z)	OpenSim_Sub04_CSBaseline_Accel.trc
DataRate	CameraRate	NumFrames	NumMarkers	Units	OrigDataRate	OrigDataStartFrame	OrigNumFrames
100	100	17	8	m	100	1	8083
Frame#	Time	torso_imu_offset_imu	pelvis_imu_offset_imu	tibia_r_imu_offset_imu	femur_r_imu_offset_imu	tibia_l_imu_offset_imu	femur_l_imu_offset_imu	toes_r_imu_offset_imu	toes_l_imu_offset_imu
				X1	Y1	Z1	X2	Y2	Z2	X3	Y3	Z3	X4	Y4	Z4	X5	Y5	Z5	X6	Y6	Z6	X7	Y7	Z7	X8		Y8	Z8	

1	0	-8.25484496	-0.17510896	8.12809029	9.50542946	-0.26290037	3.72079176	9.75942918	0.97437777	2.29202534	9.78806654	-0.01861493	1.10931812	9.68373867	-1.49708804	1.38727135	9.86438521	1.21322896	-0.76256370	5.87933899	-1.42498041	7.90174272	5.01743872	2.38085384	10.79359911
2	0.01000000	-8.28512223	-0.30869050	8.09821069	9.47915768	-0.29949924	3.66736674	9.69154681	0.92486592	2.28087536	9.75161078	-0.05278312	1.17124986	9.63002615	-1.50572566	1.40706293	9.86136795	1.18680810	-0.77159678	5.89672152	-1.42886268	7.89339291	5.02500761	2.41800410	10.79973314
3	0.02000000	-8.27148214	-0.43305314	8.14188733	9.48724957	-0.26775086	3.67631233	9.68271770	0.92899908	2.25401546	9.71446532	-0.02612342	1.19840533	9.55900544	-1.54113654	1.45093044	9.77710643	1.23629073	-0.76561386	5.90485023	-1.44623369	7.91600705	5.05698222	2.44508320	10.79931330
4	0.03000000	-8.13398133	-0.46233753	8.17223820	9.37387540	-0.27060238	3.67994915	9.70121097	0.92387080	2.18146029	9.71680203	0.00181809	1.21266467	9.52636330	-1.63697054	1.43777891	9.74591220	1.18572281	-0.76704112	5.89504811	-1.45356025	7.87774051	5.05447651	2.42263717	10.79760978
5	0.04000000	-8.12061574	-0.48480089	8.21851910	9.32130080	-0.20877592	3.63964056	9.75553045	0.94868500	2.17017474	9.76925007	-0.02932128	1.17937937	9.54507953	-1.68325052	1.42010930	9.72127938	1.17688686	-0.74820962	5.92767084	-1.45125943	7.94168202	5.04670539	2.42027802	10.79831590
6	0.05000000	-8.17398294	-0.44282676	8.24582505	9.20105659	-0.21954643	3.64908665	9.81945456	0.96838562	2.27656479	9.79169013	0.00197166	1.16746997	9.59712039	-1.66987882	1.43454710	9.69329755	1.14490926	-0.69696365	5.89903320	-1.47619319	7.87408255	5.07214618	2.39086389	10.81260674
7	0.06000000	-8.17112289	-0.34255707	8.18311900	9.18527228	-0.22340043	3.61350249	9.77097776	0.95088809	2.24956226	9.78606578	-0.05437741	1.16729683	9.59922358	-1.62151957	1.43777938	9.68933452	1.07123286	-0.67998949	5.92014749	-1.42942021	7.90254697	5.03527741	2.39289346	10.82798759
8	0.07000000	-8.16726841	-0.29931773	8.18018167	9.28710422	-0.20464447	3.61321027	9.75613737	0.89907571	2.24313675	9.75371350	-0.08647710	1.14627488	9.67012878	-1.61411161	1.43350084	9.75285493	1.01101836	-0.69562236	5.92346402	-1.45451680	7.88033579	5.05184442	2.41088887	10.85176205
9	0.08000000	-8.13696119	-0.28943488	8.22712053	9.25528987	-0.28768585	3.64313938	9.74116322	0.84858818	2.28992193	9.73863716	-0.13861526	1.12337684	9.66991850	-1.65559445	1.48322569	9.78647844	0.99899144	-0.69628053	5.92490553	-1.44689960	7.91996520	5.38368634	2.33056261	10.65268382
10	0.09000000	-8.07064844	-0.34443097	8.29841760	9.29091362	-0.34215599	3.65363940	9.77144125	0.81790725	2.24302896	9.71533789	-0.11485748	1.11602295	9.64515908	-1.69901611	1.47604488	9.80352784	0.99733514	-0.68543424	5.92606220	-1.47121658	7.90261852	6.07926674	2.13001840	10.20101985
11	0.10000000	-8.04520068	-0.31331604	8.31148647	9.37294821	-0.35629828	3.63672794	9.72529877	0.83145599	2.19238992	9.74436723	-0.13646586	1.14365971	9.63232382	-1.86428339	1.41545949	9.84703601	0.98751191	-0.73655781	5.98057169	-1.46209493	7.82975402	5.72902457	2.25977794	10.42385612
12	0.11000000	-7.91101859	-0.29359522	8.33572905	9.40651413	-0.36955351	3.63679551	9.69943663	0.81754437	2.22566552	9.77344966	-0.09252026	1.16925596	9.58963213	-2.37982788	1.40611458	9.82196739	0.99485723	-0.79601330	6.66452020	-1.09807547	7.36584590	5.15234790	2.34487010	10.76881403
13	0.12000000	-7.86570583	-0.38465031	8.34368211	9.51178694	-0.36299307	3.60108767	9.63163254	0.79887450	2.14009519	9.70659478	-0.04532157	1.18377739	9.48354463	-2.64464978	1.47947925	9.78389546	1.00580815	-0.77281743	7.09385333	-0.75922562	7.03342366	4.95541663	2.43588147	10.89661821
14	0.13000000	-7.86879956	-0.45531821	8.36229939	9.34099944	-0.32611894	3.57693686	9.67073875	1.10375116	2.19099985	9.69090776	-0.00294731	1.19446032	9.46470801	-2.08925681	1.35602357	9.77107149	1.00883275	-0.79862654	6.54946796	-1.13078031	7.43839301	5.22238600	2.38062805	10.68187359
15	0.14000000	-7.85404429	-0.57573616	8.31945807	9.40048155	-0.20331842	3.46259350	9.74801845	1.83462428	2.32804916	9.67051486	0.05974297	1.20251760	9.50029182	-1.40422059	1.32503450	9.71578688	1.02021830	-0.82377182	6.12791061	-1.32730861	7.79495610	5.40750639	2.39383359	10.53057596
16	0.15000000	-7.87301398	-0.64139913	8.33103453	9.42331423	-0.11976628	3.51123486	9.67576458	2.01582296	2.33722842	9.67881403	0.18512620	1.19926752	9.46823797	-1.42563452	1.33331684	9.61319966	1.04216393	-0.81631023	6.00476431	-1.41190393	7.86558761	5.28394061	2.43473316	10.62514126
17	0.16000000	-7.79521643	-0.59526851	8.33754764	9.41749662	-0.04702374	3.52527471	9.61027925	1.37282984	2.14776089	9.72620148	0.23317677	1.11925560	9.48774730	-1.90566302	1.39074046	9.57353867	1.05459131	-0.80316982	5.98851636	-1.46838330	7.87877007	5.23607895	2.38683909	10.64600414
